<svg width="20" height="20" viewBox="0 0 20 20" fill="none" xmlns="http://www.w3.org/2000/svg">
<rect x="0.5" y="0.5" width="19" height="19" rx="9.5" fill="#7B46DE"/>
<path d="M14.7408 6.11738L14.7396 6.11843L8.18952 12.1066L5.26067 9.42898C5.26061 9.42893 5.26055 9.42887 5.26048 9.42881C5.17561 9.35068 5.06013 9.30673 4.93968 9.30673C4.81919 9.30673 4.7037 9.35069 4.61882 9.42886C4.61878 9.4289 4.61874 9.42894 4.61869 9.42898L4.13373 9.87233C4.13367 9.87239 4.1336 9.87245 4.13354 9.87251C4.04807 9.95009 4 10.0557 4 10.1658C4 10.2759 4.04809 10.3815 4.1336 10.4591C4.13364 10.4592 4.13368 10.4592 4.13373 10.4592L7.872 13.8768C7.87207 13.8768 7.87214 13.8768 7.87221 13.8769C7.95708 13.9551 8.07255 13.999 8.19299 13.999C8.31344 13.999 8.4289 13.9551 8.51377 13.8769C8.51384 13.8768 8.51391 13.8768 8.51398 13.8768L15.8663 7.15529C15.8663 7.15527 15.8664 7.15524 15.8664 7.15523C15.9519 7.07763 16 6.97202 16 6.86185C16 6.75182 15.952 6.64634 15.8667 6.56877C15.8665 6.56865 15.8664 6.56852 15.8663 6.56839L15.3816 6.11891V6.11889L15.3799 6.11738C15.2018 5.95957 14.9188 5.95957 14.7408 6.11738Z" fill="white" stroke="white" stroke-width="0.25"/>
<rect x="0.5" y="0.5" width="19" height="19" rx="9.5" stroke="#7B46DE"/>
</svg>
