<svg width="18" height="14" viewBox="0 0 18 14" fill="none" xmlns="http://www.w3.org/2000/svg">
<path d="M15.0583 1.44168C13.95 0.925018 12.75 0.550018 11.5 0.333351C11.489 0.333001 11.4781 0.335058 11.4681 0.339377C11.458 0.343696 11.449 0.350174 11.4417 0.358351C11.2917 0.633352 11.1167 0.991685 11 1.26668C9.67416 1.06668 8.32583 1.06668 7 1.26668C6.88333 0.983351 6.70833 0.633352 6.55 0.358351C6.54166 0.341685 6.51666 0.333351 6.49166 0.333351C5.24166 0.550018 4.05 0.925018 2.93333 1.44168C2.925 1.44168 2.91666 1.45002 2.90833 1.45835C0.641663 4.85002 0.0166626 8.15002 0.324996 11.4167C0.324996 11.4334 0.333329 11.45 0.349996 11.4584C1.85 12.5584 3.29166 13.225 4.71666 13.6667C4.74166 13.675 4.76666 13.6667 4.775 13.65C5.10833 13.1917 5.40833 12.7084 5.66666 12.2C5.68333 12.1667 5.66666 12.1334 5.63333 12.125C5.15833 11.9417 4.70833 11.725 4.26666 11.475C4.23333 11.4584 4.23333 11.4084 4.25833 11.3834C4.35 11.3167 4.44166 11.2417 4.53333 11.175C4.55 11.1584 4.575 11.1584 4.59166 11.1667C7.45833 12.475 10.55 12.475 13.3833 11.1667C13.4 11.1584 13.425 11.1584 13.4417 11.175C13.5333 11.25 13.625 11.3167 13.7167 11.3917C13.75 11.4167 13.75 11.4667 13.7083 11.4833C13.275 11.7417 12.8167 11.95 12.3417 12.1334C12.3083 12.1417 12.3 12.1834 12.3083 12.2084C12.575 12.7167 12.875 13.2 13.2 13.6584C13.225 13.6667 13.25 13.675 13.275 13.6667C14.7083 13.225 16.15 12.5584 17.65 11.4584C17.6667 11.45 17.675 11.4334 17.675 11.4167C18.0417 7.64168 17.0667 4.36668 15.0917 1.45835C15.0833 1.45002 15.075 1.44168 15.0583 1.44168ZM6.1 9.42502C5.24166 9.42502 4.525 8.63335 4.525 7.65835C4.525 6.68335 5.225 5.89168 6.1 5.89168C6.98333 5.89168 7.68333 6.69168 7.675 7.65835C7.675 8.63335 6.975 9.42502 6.1 9.42502ZM11.9083 9.42502C11.05 9.42502 10.3333 8.63335 10.3333 7.65835C10.3333 6.68335 11.0333 5.89168 11.9083 5.89168C12.7917 5.89168 13.4917 6.69168 13.4833 7.65835C13.4833 8.63335 12.7917 9.42502 11.9083 9.42502Z" fill="#F1F1F1"/>
</svg>
