<svg width="18" height="18" viewBox="0 0 18 18" fill="none" xmlns="http://www.w3.org/2000/svg">
<path d="M9.00002 0.700012C4.41669 0.700012 0.666687 4.44168 0.666687 9.05001C0.666687 13.2167 3.71669 16.675 7.70002 17.3V11.4667H5.58335V9.05001H7.70002V7.20835C7.70002 5.11668 8.94169 3.96668 10.85 3.96668C11.7584 3.96668 12.7084 4.12501 12.7084 4.12501V6.18335H11.6584C10.625 6.18335 10.3 6.82501 10.3 7.48335V9.05001H12.6167L12.2417 11.4667H10.3V17.3C12.2637 16.9899 14.0519 15.9879 15.3416 14.4751C16.6314 12.9622 17.3378 11.038 17.3334 9.05001C17.3334 4.44168 13.5834 0.700012 9.00002 0.700012Z" fill="#F1F1F1"/>
</svg>
