<svg width="29" height="28" viewBox="0 0 29 28" fill="none" xmlns="http://www.w3.org/2000/svg">
<circle cx="14.5" cy="14" r="14" fill="white"/>
<path d="M14.6667 6C16.5083 6 18 7.49167 18 9.33333C18 11.175 16.5083 12.6667 14.6667 12.6667C12.825 12.6667 11.3333 11.175 11.3333 9.33333C11.3333 7.49167 12.825 6 14.6667 6ZM18 14.7833C18 15.6667 17.7667 17.725 16.175 20.025L15.5 16L16.2833 14.4333C15.7667 14.375 15.225 14.3333 14.6667 14.3333C14.1083 14.3333 13.5667 14.375 13.05 14.4333L13.8333 16L13.1583 20.025C11.5667 17.725 11.3333 15.6667 11.3333 14.7833C9.34167 15.3667 8 16.4167 8 17.6667V21H21.3333V17.6667C21.3333 16.4167 20 15.3667 18 14.7833Z" fill="#4875B4"/>
</svg>
