<svg width="29" height="28" viewBox="0 0 29 28" fill="none" xmlns="http://www.w3.org/2000/svg">
<circle cx="14.5" cy="14" r="14" fill="white"/>
<path d="M10.1667 7.25C9.79094 7.25 9.43061 7.39926 9.16493 7.66493C8.89926 7.93061 8.75 8.29094 8.75 8.66667C8.75 9.04239 8.89926 9.40272 9.16493 9.6684C9.43061 9.93408 9.79094 10.0833 10.1667 10.0833C10.5424 10.0833 10.9027 9.93408 11.1684 9.6684C11.4341 9.40272 11.5833 9.04239 11.5833 8.66667C11.5833 8.29094 11.4341 7.93061 11.1684 7.66493C10.9027 7.39926 10.5424 7.25 10.1667 7.25ZM8.83333 11.25C8.81123 11.25 8.79004 11.2588 8.77441 11.2744C8.75878 11.29 8.75 11.3112 8.75 11.3333V20C8.75 20.046 8.78733 20.0833 8.83333 20.0833H11.5C11.5221 20.0833 11.5433 20.0746 11.5589 20.0589C11.5746 20.0433 11.5833 20.0221 11.5833 20V11.3333C11.5833 11.3112 11.5746 11.29 11.5589 11.2744C11.5433 11.2588 11.5221 11.25 11.5 11.25H8.83333ZM13.1667 11.25C13.1446 11.25 13.1234 11.2588 13.1077 11.2744C13.0921 11.29 13.0833 11.3112 13.0833 11.3333V20C13.0833 20.046 13.1207 20.0833 13.1667 20.0833H15.8333C15.8554 20.0833 15.8766 20.0746 15.8923 20.0589C15.9079 20.0433 15.9167 20.0221 15.9167 20V15.3333C15.9167 15.0018 16.0484 14.6839 16.2828 14.4494C16.5172 14.215 16.8351 14.0833 17.1667 14.0833C17.4982 14.0833 17.8161 14.215 18.0506 14.4494C18.285 14.6839 18.4167 15.0018 18.4167 15.3333V20C18.4167 20.046 18.454 20.0833 18.5 20.0833H21.1667C21.1888 20.0833 21.21 20.0746 21.2256 20.0589C21.2412 20.0433 21.25 20.0221 21.25 20V14.2533C21.25 12.6353 19.8433 11.37 18.2333 11.516C17.7352 11.5613 17.2472 11.6846 16.7873 11.8813L15.9167 12.2547V11.3333C15.9167 11.3112 15.9079 11.29 15.8923 11.2744C15.8766 11.2588 15.8554 11.25 15.8333 11.25H13.1667Z" fill="#4875B4"/>
</svg>
