<svg width="29" height="28" viewBox="0 0 29 28" fill="none" xmlns="http://www.w3.org/2000/svg">
<circle cx="14.5" cy="14" r="14" fill="white"/>
<path d="M18.3667 8.35C17.797 7.69969 17.4831 6.86453 17.4833 6H14.9083V16.3333C14.8885 16.8925 14.6524 17.4222 14.2498 17.8108C13.8472 18.1994 13.3095 18.4166 12.75 18.4167C11.5667 18.4167 10.5833 17.45 10.5833 16.25C10.5833 14.8167 11.9667 13.7417 13.3917 14.1833V11.55C10.5167 11.1667 8 13.4 8 16.25C8 19.025 10.3 21 12.7417 21C15.3583 21 17.4833 18.875 17.4833 16.25V11.0083C18.5275 11.7582 19.7811 12.1605 21.0667 12.1583V9.58333C21.0667 9.58333 19.5 9.65833 18.3667 8.35Z" fill="black"/>
</svg>
