<svg width="92" height="54" viewBox="0 0 92 54" fill="none" xmlns="http://www.w3.org/2000/svg">
<path d="M49.8333 23.1667C52.1078 23.1667 54.3312 22.4922 56.2224 21.2286C58.1136 19.9649 59.5875 18.1689 60.4579 16.0675C61.3284 13.9662 61.5561 11.6539 61.1124 9.42312C60.6686 7.19234 59.5734 5.14324 57.9651 3.53493C56.3568 1.92663 54.3077 0.831361 52.0769 0.387631C49.8461 -0.0560991 47.5338 0.171639 45.4325 1.04205C43.3311 1.91245 41.5351 3.38644 40.2714 5.2776C39.0078 7.16877 38.3333 9.39218 38.3333 11.6667C38.3333 14.7167 39.5449 17.6417 41.7016 19.7984C43.8583 21.9551 46.7833 23.1667 49.8333 23.1667ZM49.8333 7.83333C50.5915 7.83333 51.3326 8.05815 51.963 8.47936C52.5934 8.90057 53.0847 9.49926 53.3749 10.1997C53.665 10.9002 53.7409 11.6709 53.593 12.4145C53.4451 13.1581 53.08 13.8411 52.5439 14.3772C52.0078 14.9133 51.3248 15.2784 50.5812 15.4263C49.8376 15.5742 49.0668 15.4983 48.3664 15.2082C47.6659 14.9181 47.0672 14.4267 46.646 13.7963C46.2248 13.166 46 12.4248 46 11.6667C46 10.65 46.4039 9.67498 47.1228 8.95609C47.8416 8.2372 48.8167 7.83333 49.8333 7.83333ZM65.5883 22.63C67.831 19.4139 69.0335 15.5875 69.0335 11.6667C69.0335 7.74586 67.831 3.91938 65.5883 0.703327C66.6908 0.348412 67.8418 0.167354 69 0.166661C72.05 0.166661 74.9751 1.37826 77.1317 3.53493C79.2884 5.6916 80.5 8.61667 80.5 11.6667C80.5 14.7167 79.2884 17.6417 77.1317 19.7984C74.9751 21.9551 72.05 23.1667 69 23.1667C67.8418 23.166 66.6908 22.9849 65.5883 22.63ZM49.8333 30.8333C26.8333 30.8333 26.8333 46.1667 26.8333 46.1667V53.8333H72.8333V46.1667C72.8333 46.1667 72.8333 30.8333 49.8333 30.8333ZM34.5 46.1667C34.5 45.055 35.7267 38.5 49.8333 38.5C63.25 38.5 64.9367 44.48 65.1667 46.1667M92 46.1667V53.8333H80.5V46.1667C80.4104 43.3171 79.7541 40.514 78.5695 37.9208C77.3848 35.3277 75.6954 32.9965 73.6 31.0633C92 32.9417 92 46.1667 92 46.1667ZM30.6667 27H19.1667V38.5H11.5V27H0V19.3333H11.5V7.83333H19.1667V19.3333H30.6667V27Z" fill="#F1F1F1"/>
</svg>
