<svg width="98" height="98" viewBox="0 0 98 98" fill="none" xmlns="http://www.w3.org/2000/svg">
<path d="M24.5 8.16666C20.1681 8.16666 16.0137 9.88749 12.9506 12.9506C9.88749 16.0137 8.16666 20.1681 8.16666 24.5V49C8.16666 53.3319 9.88749 57.4863 12.9506 60.5494C16.0137 63.6125 20.1681 65.3333 24.5 65.3333H49.6942C50.6574 68.0578 52.5528 70.354 55.0453 71.8162C57.5378 73.2783 60.467 73.8122 63.3151 73.3236C66.1632 72.8349 68.7468 71.3551 70.6094 69.1458C72.472 66.9364 73.4936 64.1397 73.4936 61.25C73.4936 58.3603 72.472 55.5636 70.6094 53.3542C68.7468 51.1449 66.1632 49.6651 63.3151 49.1764C60.467 48.6878 57.5378 49.2217 55.0453 50.6838C52.5528 52.146 50.6574 54.4422 49.6942 57.1667H24.5C22.3341 57.1667 20.2568 56.3062 18.7253 54.7747C17.1937 53.2431 16.3333 51.1659 16.3333 49V24.5C16.3333 22.3341 17.1937 20.2568 18.7253 18.7253C20.2568 17.1937 22.3341 16.3333 24.5 16.3333H49C51.1659 16.3333 53.2432 17.1937 54.7747 18.7253C56.3063 20.2568 57.1667 22.3341 57.1667 24.5H65.3333C65.3333 20.1681 63.6125 16.0137 60.5494 12.9506C57.4863 9.88749 53.3319 8.16666 49 8.16666H24.5ZM65.3333 61.25C65.3333 62.333 64.9031 63.3716 64.1374 64.1373C63.3716 64.9031 62.333 65.3333 61.25 65.3333C60.167 65.3333 59.1284 64.9031 58.3626 64.1373C57.5969 63.3716 57.1667 62.333 57.1667 61.25C57.1667 60.167 57.5969 59.1284 58.3626 58.3626C59.1284 57.5969 60.167 57.1667 61.25 57.1667C62.333 57.1667 63.3716 57.5969 64.1374 58.3626C64.9031 59.1284 65.3333 60.167 65.3333 61.25ZM73.5 89.8333C77.8319 89.8333 81.9863 88.1125 85.0494 85.0494C88.1125 81.9863 89.8333 77.8319 89.8333 73.5V49C89.8333 44.6681 88.1125 40.5137 85.0494 37.4506C81.9863 34.3875 77.8319 32.6667 73.5 32.6667H48.3058C47.3426 29.9422 45.4472 27.646 42.9547 26.1838C40.4622 24.7217 37.533 24.1877 34.6849 24.6764C31.8368 25.1651 29.2531 26.6448 27.3906 28.8542C25.528 31.0636 24.5064 33.8603 24.5064 36.75C24.5064 39.6397 25.528 42.4364 27.3906 44.6458C29.2531 46.8551 31.8368 48.3349 34.6849 48.8236C37.533 49.3122 40.4622 48.7783 42.9547 47.3162C45.4472 45.854 47.3426 43.5578 48.3058 40.8333H73.5C75.6659 40.8333 77.7432 41.6937 79.2747 43.2253C80.8063 44.7568 81.6667 46.8341 81.6667 49V73.5C81.6667 75.6659 80.8063 77.7431 79.2747 79.2747C77.7432 80.8062 75.6659 81.6667 73.5 81.6667H49C46.8341 81.6667 44.7568 80.8062 43.2253 79.2747C41.6937 77.7431 40.8333 75.6659 40.8333 73.5H32.6667C32.6667 77.8319 34.3875 81.9863 37.4506 85.0494C40.5137 88.1125 44.6681 89.8333 49 89.8333H73.5ZM36.75 40.8333C35.667 40.8333 34.6284 40.4031 33.8626 39.6373C33.0969 38.8716 32.6667 37.833 32.6667 36.75C32.6667 35.667 33.0969 34.6284 33.8626 33.8626C34.6284 33.0969 35.667 32.6667 36.75 32.6667C37.833 32.6667 38.8716 33.0969 39.6374 33.8626C40.4031 34.6284 40.8333 35.667 40.8333 36.75C40.8333 37.833 40.4031 38.8716 39.6374 39.6373C38.8716 40.4031 37.833 40.8333 36.75 40.8333Z" fill="#F1F1F1"/>
</svg>
