<svg width="98" height="98" viewBox="0 0 98 98" fill="none" xmlns="http://www.w3.org/2000/svg">
<path d="M85.75 57.1667V77.5833C85.75 79.7493 84.8896 81.8265 83.358 83.358C81.8265 84.8896 79.7493 85.75 77.5833 85.75H20.4167C18.2507 85.75 16.1735 84.8896 14.642 83.358C13.1104 81.8265 12.25 79.7493 12.25 77.5833V20.4167C12.25 18.2507 13.1104 16.1735 14.642 14.642C16.1735 13.1104 18.2507 12.25 20.4167 12.25H40.8333V20.4167H20.4167V77.5833H77.5833V57.1667H85.75Z" fill="#F1F1F1"/>
<path d="M85.75 28.5833H69.4167V12.25H61.25V28.5833H44.9167V36.75H61.25V53.0833H69.4167V36.75H85.75V28.5833Z" fill="#F1F1F1"/>
</svg>
